<svg width="15" height="11" viewBox="0 0 15 11" fill="none" xmlns="http://www.w3.org/2000/svg">
<path d="M0.000355154 10.7855V-4.45843e-05H3.36257V1.35507H1.75604V9.42609H3.36257V10.7855H0.000355154ZM6.23153 9.01274C5.81392 9.01274 5.44176 8.9403 5.11506 8.79541C4.78835 8.64768 4.52983 8.43035 4.33949 8.14342C4.15199 7.85365 4.05824 7.49285 4.05824 7.06104C4.05824 6.6974 4.125 6.392 4.25852 6.14484C4.39205 5.89768 4.57386 5.69882 4.80398 5.54825C5.03409 5.39768 5.29545 5.28405 5.58807 5.20734C5.88352 5.13064 6.19318 5.07666 6.51705 5.04541C6.89773 5.00564 7.20455 4.96871 7.4375 4.93461C7.67045 4.89768 7.83949 4.84371 7.9446 4.77268C8.04972 4.70166 8.10227 4.59655 8.10227 4.45734V4.43177C8.10227 4.16189 8.01705 3.95308 7.84659 3.80535C7.67898 3.65763 7.44034 3.58376 7.13068 3.58376C6.80398 3.58376 6.54403 3.65621 6.35085 3.80109C6.15767 3.94314 6.02983 4.12211 5.96733 4.33802L4.28835 4.20166C4.37358 3.80393 4.54119 3.46018 4.79119 3.17041C5.04119 2.8778 5.36364 2.65336 5.75852 2.49711C6.15625 2.33802 6.61648 2.25848 7.1392 2.25848C7.50284 2.25848 7.85085 2.30109 8.18324 2.38632C8.51847 2.47155 8.81534 2.60365 9.07386 2.78263C9.33523 2.9616 9.54119 3.19172 9.69176 3.47297C9.84233 3.75138 9.91761 4.08518 9.91761 4.47439V8.88916H8.19602V7.98149H8.14489C8.03977 8.18604 7.89915 8.36643 7.72301 8.52268C7.54688 8.67609 7.33523 8.79683 7.08807 8.8849C6.84091 8.97013 6.5554 9.01274 6.23153 9.01274ZM6.75142 7.7599C7.01847 7.7599 7.25426 7.70734 7.45881 7.60223C7.66335 7.49427 7.82386 7.34939 7.94034 7.16757C8.05682 6.98575 8.11506 6.77979 8.11506 6.54967V5.85507C8.05824 5.892 7.98011 5.92609 7.88068 5.95734C7.78409 5.98575 7.67472 6.01274 7.55256 6.03831C7.4304 6.06104 7.30824 6.08234 7.18608 6.10223C7.06392 6.11927 6.95312 6.1349 6.85369 6.1491C6.64063 6.18035 6.45455 6.23007 6.29545 6.29825C6.13636 6.36643 6.01278 6.45876 5.92472 6.57524C5.83665 6.68888 5.79261 6.83092 5.79261 7.00138C5.79261 7.24854 5.8821 7.43746 6.06108 7.56814C6.2429 7.69598 6.47301 7.7599 6.75142 7.7599ZM14.2408 -4.45843e-05V10.7855H10.8786V9.42609H12.4851V1.35507H10.8786V-4.45843e-05H14.2408Z" fill="#4F46E5"/>
</svg>
