<svg width="302" height="350" viewBox="0 0 302 350" fill="none" xmlns="http://www.w3.org/2000/svg">
<path d="M43.6757 0.44536C26.3958 2.44883 12.7722 12.2157 5.50966 27.6925C1.70308 35.7564 0.000131828 44.5717 0.000131828 56.0415C-0.0499548 85.242 14.1747 105.227 38.8674 110.586C43.7258 111.638 51.7396 112.088 57.3994 111.588C80.9402 109.484 95.5154 95.4597 98.9213 71.6185L99.2218 69.5148H85.7485H72.3253L71.6741 72.5701C70.7726 76.8275 68.118 82.0866 65.6637 84.5408C58.0005 92.2041 41.7223 91.6031 34.3095 83.3888C30.002 78.6306 27.9485 72.7204 26.9968 62.1521C25.9951 51.3334 27.5478 39.9637 30.9036 33.3523C32.4563 30.2469 36.1126 26.2901 38.8674 24.6873C41.4719 23.1346 46.5306 21.9325 50.4875 21.9325C61.6568 21.9325 68.6689 27.4921 71.4237 38.5613L72.2752 41.9672H85.7986H99.2719L98.9713 40.0639C98.1199 35.2556 96.5672 29.5457 95.1648 26.1398C90.9575 16.0724 82.9436 7.90827 73.2268 3.95143C64.8623 0.495447 54.244 -0.756719 43.6757 0.44536Z" fill="#E50115"/>
<path d="M104.832 57.0933L104.982 111.838L117.153 111.988L129.274 112.088V57.2436V2.39869H117.003H104.731L104.832 57.0933Z" fill="#E50115"/>
<path d="M219.43 57.2436V112.088L231.601 111.988L243.722 111.838L243.872 107.931L244.022 104.024L246.877 106.679C250.133 109.634 254.741 112.139 259.249 113.341C262.705 114.242 270.769 114.342 274.625 113.541C278.081 112.84 284.693 109.684 287.447 107.48C296.663 100.068 301.772 85.793 300.921 69.5649C299.719 46.3748 288.349 32.651 269.066 31.1484C261.352 30.5474 251.936 33.803 246.527 38.8618L243.972 41.2659V21.8323V2.39869H231.701H219.43V57.2436ZM265.61 50.2815C272.572 52.6356 276.528 60.8999 276.528 72.8706C276.478 87.9968 270.067 96.6618 259.449 95.9105C249.682 95.2593 244.473 87.0952 244.473 72.6202C244.523 60.6995 248.33 52.7358 255.141 50.2815C257.946 49.3299 262.805 49.2798 265.61 50.2815Z" fill="#E50115"/>
<path d="M136.286 62.0018C136.286 86.0935 136.386 91.2023 137.087 94.4579C139.091 104.225 145.201 110.987 154.067 113.341C157.523 114.242 165.637 114.342 169.443 113.541C174.302 112.539 179.06 109.935 182.466 106.479C184.219 104.726 186.122 102.622 186.723 101.821L187.825 100.318V106.178L187.875 112.088H199.896H211.917V72.7704V33.4524H199.946H187.925L187.775 58.5959C187.625 81.0848 187.525 84.0399 186.723 85.9933C185.371 89.3992 183.668 91.3526 180.512 92.9053C177.958 94.1073 177.056 94.3077 173.1 94.3077C169.093 94.3077 168.341 94.1574 166.238 92.9553C164.435 91.8534 163.583 90.9018 162.481 88.698L161.079 85.793L160.929 59.5976L160.778 33.4524H148.557H136.286V62.0018Z" fill="#E50115"/>
<path d="M146.554 120.403C142.647 121.004 138.74 122.757 136.286 124.961C131.628 129.168 129.925 134.277 129.424 145.496L129.124 152.659H123.464H117.754V161.674V170.69H123.514H129.274V200.742V230.794H141.545H153.816V200.742V170.69L165.486 170.79L177.107 170.94L177.407 192.978C177.658 211.911 177.808 215.417 178.559 218.022C181.013 226.286 185.621 230.393 194.136 231.846C197.993 232.497 207.209 232.196 212.317 231.245L215.423 230.694V221.528V212.362L210.665 212.162C206.858 212.011 205.656 211.761 204.554 210.959C201.95 209.006 201.899 208.856 201.899 189.072V170.69H208.661H215.423V161.674V152.659H208.661H201.899V141.64V130.621H189.628H177.357V141.64V152.659H165.587H153.816V149.002C153.816 142.241 156.02 140.137 163.233 140.137H167.34V130.921V121.705L164.735 121.104C161.98 120.503 149.158 120.002 146.554 120.403Z" fill="#E50115"/>
<path d="M4.05713 176.199V230.794H17.831H31.6048V210.759V190.724H53.6429H75.681V179.455V168.185L53.7932 168.085L31.8552 167.935L31.705 156.064L31.6048 144.144L58.5013 144.044L85.4479 143.893L85.5982 132.724L85.6984 121.605H44.8777H4.05713V176.199Z" fill="#E50115"/>
<path d="M97.9698 123.809C94.3134 125.411 92.1096 129.118 92.1096 133.676C92.1096 139.886 96.1166 143.743 102.528 143.793C108.588 143.843 112.745 139.686 112.745 133.576C112.745 130.12 112.144 128.367 110.341 126.413C107.536 123.408 101.676 122.156 97.9698 123.809Z" fill="#E50115"/>
<path d="M90.2063 191.726V230.794H102.478H114.749V191.726V152.659H102.478H90.2063V191.726Z" fill="#E50115"/>
<path d="M216.074 153.51C216.174 154.011 221.634 168.386 228.195 185.465C243.822 226.286 244.223 227.588 243.021 232.146C241.668 237.155 238.062 239.108 230.95 238.707L226.442 238.407L226.542 247.523L226.692 256.588L230.198 257.189C235.257 258.041 246.026 257.991 249.933 257.089C257.395 255.336 262.705 250.728 266.762 242.614C268.214 239.609 273.874 223.481 283.24 195.332L297.465 152.659H285.294H273.073L272.371 155.013C271.971 156.365 268.665 167.835 264.959 180.557C261.302 193.329 258.147 203.747 257.996 203.747C257.846 203.747 253.789 192.327 248.981 178.303L240.166 152.909L227.995 152.759C216.525 152.659 215.824 152.709 216.074 153.51Z" fill="#E50115"/>
<path d="M4.05713 295.406V350H17.831H31.6048V329.715V309.43H53.6429H75.681V298.16V286.891H53.6429H31.6048L31.705 274.97L31.8552 263.1L58.8018 262.949L85.6984 262.849V251.83V240.811H44.8777H4.05713V295.406Z" fill="#E50115"/>
<path d="M99.2218 241.863C92.6104 243.866 89.8556 252.281 93.8625 258.241C97.018 262.899 105.382 263.651 109.64 259.694C112.895 256.689 113.747 250.879 111.593 246.771C109.439 242.714 103.78 240.511 99.2218 241.863Z" fill="#E50115"/>
<path d="M90.2063 310.932V350H102.478H114.749V310.932V271.865H102.478H90.2063V310.932Z" fill="#E50115"/>
<path d="M115.8 272.215C115.8 272.466 121.811 289.946 129.174 311.183L142.547 349.75L156.07 349.9L169.593 350L182.866 311.584C190.179 290.497 196.189 272.917 196.29 272.516C196.44 271.965 194.236 271.865 184.269 271.865H172.098L164.384 296.808C160.127 310.482 156.521 321.901 156.27 322.152C155.87 322.603 155.319 320.9 146.003 290.998L140.042 271.865H127.921C121.21 271.865 115.75 272.015 115.8 272.215Z" fill="#E50115"/>
<path d="M221.684 272.716C208.01 275.621 198.143 285.338 194.336 299.663C192.784 305.373 192.784 316.492 194.336 322.152C196.19 329.164 198.944 334.072 203.552 338.731C210.014 345.242 216.625 348.297 226.642 349.499C239.665 351.052 252.136 347.446 259.499 339.933C262.705 336.727 266.511 330.316 267.313 326.81L267.613 325.458H256.344H245.074L244.022 327.16C242.82 329.114 240.015 331.117 237.261 331.969C234.055 332.971 227.193 332.42 224.188 330.867C219.68 328.513 216.825 324.406 216.124 319.247L215.773 316.943H242.47H269.116L268.765 312.535C267.363 293.853 260.651 281.632 248.43 275.671C245.625 274.319 242.169 273.067 239.865 272.616C235.057 271.664 226.292 271.715 221.684 272.716ZM237.812 288.894C242.369 290.898 245.024 294.704 245.775 300.314L246.126 302.919H230.95H215.773L216.074 300.414C216.875 293.903 220.682 289.445 226.793 287.893C229.647 287.191 235.107 287.692 237.812 288.894Z" fill="#E50115"/>
<path d="M283.791 326.309C277.23 327.812 273.874 331.768 273.824 337.979C273.824 345.542 279.383 350.601 286.846 349.85C292.857 349.249 296.814 345.292 297.415 339.231C297.915 334.473 295.662 329.965 291.655 327.862C289.301 326.559 285.694 325.858 283.791 326.309Z" fill="#E50115"/>
</svg>
